<svg viewBox="0 0 512 512" version="1.1" xmlns="http://www.w3.org/2000/svg" fill="#b0bbbb">
  <g transform="translate(8.000000, 8.000000)">
    <path d="M248,496 C111.033382,496 0,384.966618 0,248 C0,111.033382 111.033382,0 248,0 C384.966618,0 496,111.033382 496,248 C496,384.966618 384.966618,496 248,496 Z M96.2,280.95 L128.75,280.95 C142.4,337.65 192.8,377.2 254.05,377.2 C307.25,377.2 351.35,348.85 370.95,299.5 L316,299.5 C300.95,320.85 280.3,329.95 254.4,329.95 C218,329.95 190.7,310 179.15,280.95 L281.35,280.95 L288,261.35 L173.9,261.35 C173.55,257.15 173.2,252.95 173.2,248.75 C173.2,244.2 173.55,240 174.25,235.8 L297.1,235.8 L304.1,215.85 L179.5,215.85 C191.05,187.15 218.35,167.55 254.4,167.55 C280.3,167.55 300.95,176.65 316,198 L370.95,198 C351.35,148.65 307.25,120.3 254.05,120.3 C192.8,120.3 143.1,159.5 128.75,215.85 L103.55,215.85 L96.2,235.8 L125.6,235.8 C125.25,240 124.9,244.2 124.9,248.75 C124.9,252.95 125.25,257.15 125.6,261.35 L103.55,261.35 L96.2,280.95 Z"></path>
  </g>
</svg>
