<svg viewBox="0 0 496 496" xmlns="http://www.w3.org/2000/svg" fill="#5db5f4"><path d="M248,0 C384.966169,0 496,111.033831 496,248 C496,384.96398 384.966169,496 248,496 C111.033831,496 0,384.966169 0,248 C0,111.033831 111.033831,0 248,0 Z M351.797206,358.497542 C367.918727,330.798733 357.853994,295.655348 329.323389,280.00226 C319.950361,274.862635 309.749914,272.478883 299.700504,272.557685 L299.785873,272.511717 C286.008703,272.66932 274.700654,261.947907 274.540862,248.573502 C274.37888,235.374211 285.117805,224.530217 298.634492,224.077107 L298.634492,224.072729 L298.608224,224.061785 C308.828371,224.011439 319.171099,221.410982 328.590095,215.975851 C356.768282,199.716427 366.025296,164.365094 349.277739,137.014325 C332.525804,109.667935 296.108458,100.67797 267.939028,116.937395 C239.765219,133.19463 230.503826,168.548152 247.251384,195.896732 C254.231904,207.292338 250.372808,222.021695 238.635727,228.796455 C227.065006,235.474902 212.164912,231.924446 205.055244,220.909715 L205.050866,220.914093 L205.050866,220.944738 C199.924376,212.361916 192.464478,204.943608 182.92728,199.712049 C154.38573,184.05896 118.185089,193.828186 102.05919,221.533562 C85.9376683,249.230183 96.0024008,284.380134 124.541762,300.028845 C153.076745,315.679744 189.279575,305.908329 205.401096,278.205142 C205.499598,278.036594 205.584967,277.868046 205.68128,277.697309 L205.68128,277.743277 L205.685658,277.743277 C212.534842,266.564375 227.367079,262.687768 239.091026,269.116676 C250.983521,275.641897 255.175336,290.281508 248.459677,301.821584 C232.333778,329.52696 242.39851,364.672533 270.935682,380.321244 C299.470666,395.969955 335.675684,386.200729 351.797206,358.497542 Z"></path></svg>
